<svg xmlns="http://www.w3.org/2000/svg" viewBox="0 0 1200 340" preserveAspectRatio="xMidYMid meet" font-family="ui-monospace, Consolas, 'Courier New', monospace">
  <rect width="1200" height="340" fill="#000000"/>

  <!-- =================== F-KEY STRIP =================== -->
  <g font-size="11" font-weight="700" text-anchor="middle">
    <!-- F1 HELP -->
    <rect x="26" y="10" width="92" height="22" fill="#0A0A0A" stroke="#333333" stroke-width="1"/>
    <rect x="26" y="10" width="92" height="3" fill="#4C9F70"/>
    <text x="72" y="26" fill="#FFFFFF">F1·HELP</text>
    <!-- F2 EQUITY -->
    <rect x="122" y="10" width="92" height="22" fill="#0A0A0A" stroke="#333333" stroke-width="1"/>
    <rect x="122" y="10" width="92" height="3" fill="#FF7700"/>
    <text x="168" y="26" fill="#FFFFFF">F2·EQUITY</text>
    <!-- F3 GOVT -->
    <rect x="218" y="10" width="92" height="22" fill="#0A0A0A" stroke="#333333" stroke-width="1"/>
    <rect x="218" y="10" width="92" height="3" fill="#DA291C"/>
    <text x="264" y="26" fill="#FFFFFF">F3·GOVT</text>
    <!-- F4 CORP -->
    <rect x="314" y="10" width="92" height="22" fill="#0A0A0A" stroke="#333333" stroke-width="1"/>
    <rect x="314" y="10" width="92" height="3" fill="#F2C200"/>
    <text x="360" y="26" fill="#FFFFFF">F4·CORP</text>
    <!-- F5 MTGE -->
    <rect x="410" y="10" width="92" height="22" fill="#0A0A0A" stroke="#333333" stroke-width="1"/>
    <rect x="410" y="10" width="92" height="3" fill="#4C9F70"/>
    <text x="456" y="26" fill="#FFFFFF">F5·MTGE</text>
    <!-- F6 M-MKT -->
    <rect x="506" y="10" width="92" height="22" fill="#0A0A0A" stroke="#333333" stroke-width="1"/>
    <rect x="506" y="10" width="92" height="3" fill="#A07845"/>
    <text x="552" y="26" fill="#FFFFFF">F6·M-MKT</text>
    <!-- F7 MUNI -->
    <rect x="602" y="10" width="92" height="22" fill="#0A0A0A" stroke="#333333" stroke-width="1"/>
    <rect x="602" y="10" width="92" height="3" fill="#3D7BCC"/>
    <text x="648" y="26" fill="#FFFFFF">F7·MUNI</text>
    <!-- F8 PFD -->
    <rect x="698" y="10" width="92" height="22" fill="#0A0A0A" stroke="#333333" stroke-width="1"/>
    <rect x="698" y="10" width="92" height="3" fill="#A24CC9"/>
    <text x="744" y="26" fill="#FFFFFF">F8·PFD</text>
    <!-- F9 CMDTY -->
    <rect x="794" y="10" width="92" height="22" fill="#0A0A0A" stroke="#333333" stroke-width="1"/>
    <rect x="794" y="10" width="92" height="3" fill="#C45A1F"/>
    <text x="840" y="26" fill="#FFFFFF">F9·CMDTY</text>
    <!-- F10 INDEX -->
    <rect x="890" y="10" width="92" height="22" fill="#0A0A0A" stroke="#333333" stroke-width="1"/>
    <rect x="890" y="10" width="92" height="3" fill="#FFFFFF"/>
    <text x="936" y="26" fill="#FFFFFF">F10·INDEX</text>
    <!-- F11 CRNCY -->
    <rect x="986" y="10" width="92" height="22" fill="#0A0A0A" stroke="#333333" stroke-width="1"/>
    <rect x="986" y="10" width="92" height="3" fill="#2E8B57"/>
    <text x="1032" y="26" fill="#FFFFFF">F11·CRNCY</text>
    <!-- F12 CLIENT -->
    <rect x="1082" y="10" width="92" height="22" fill="#0A0A0A" stroke="#333333" stroke-width="1"/>
    <rect x="1082" y="10" width="92" height="3" fill="#888888"/>
    <text x="1128" y="26" fill="#FFFFFF">F12·CLIENT</text>
  </g>

  <!-- =================== COMMAND BAR =================== -->
  <line x1="26" y1="50" x2="1174" y2="50" stroke="#444444" stroke-width="0.5" opacity="1"/>
  <text x="26" y="68" fill="#FF7700" font-size="13" font-weight="700">DAVIDYANG02 CA</text>
  <text x="186" y="68" fill="#FFFFFF" font-size="13">&lt;Equity&gt;  GP  &lt;Go&gt;</text>
  <rect x="324" y="58" width="9" height="13" fill="#00C853">
    <animate attributeName="opacity" values="1;1;0;0" dur="1.05s" repeatCount="indefinite"/>
  </rect>
  <text x="1174" y="68" fill="#FFFFFF" font-size="13" text-anchor="end">2026-05-09  20:50:10 UTC</text>
  <line x1="26" y1="80" x2="1174" y2="80" stroke="#444444" stroke-width="0.5" opacity="1"/>

  <!-- =================== HERO TITLE (LEFT) =================== -->
  <text x="26" y="170" fill="#FFFFFF" font-size="64" font-weight="700" letter-spacing="2">DAVIDYANG02</text>
  <text x="28" y="200" fill="#FFFFFF" font-size="14" letter-spacing="3">ENGINEERING  /  GAME DEV  /  RESEARCH</text>

  <!-- Status badges -->
  <g font-size="11" font-weight="700">
    <circle cx="34" cy="232" r="4" fill="#00C853"/>
    <text x="44" y="236" fill="#00C853">LIVE</text>
    <text x="86" y="236" fill="#888888">|</text>
    <text x="98" y="236" fill="#FFFFFF">TORONTO · ON · CA</text>
  </g>

  <!-- =================== RIGHT PANEL: GIP MINI =================== -->
  <g>
    <rect x="820" y="100" width="354" height="170" fill="none" stroke="#444444" stroke-width="1"/>
    <rect x="820" y="100" width="3" height="20" fill="#FF7700"/>
    <line x1="820" y1="120" x2="1174" y2="120" stroke="#444444" stroke-width="0.5"/>
    <text x="830" y="115" fill="#FF7700" font-size="11" font-weight="700">GIP · 1Y INTRADAY · CONTRIBUTIONS</text>
    <text x="1166" y="115" fill="#FF7700" font-size="11" font-weight="700" text-anchor="end">▲</text>

    <!-- Sparkline (draws in on load) -->
    <polyline
      points="830,240 850,232 870,238 890,220 910,224 930,210 950,218 970,200 990,206 1010,188 1030,196 1050,178 1070,170 1090,180 1110,158 1130,166 1150,148 1166,142"
      fill="none" stroke="#5CB3E5" stroke-width="1.6"
      stroke-dasharray="420" stroke-dashoffset="420">
      <animate attributeName="stroke-dashoffset" from="420" to="0" dur="2.2s" fill="freeze"/>
    </polyline>
    <polyline
      points="830,240 850,232 870,238 890,220 910,224 930,210 950,218 970,200 990,206 1010,188 1030,196 1050,178 1070,170 1090,180 1110,158 1130,166 1150,148 1166,142 1166,260 830,260"
      fill="#5CB3E5" opacity="0.10" stroke="none"/>

    <!-- Footer numbers -->
    <text x="828" y="258" fill="#FFFFFF" font-size="10">LAST</text>
    <text x="828" y="270" fill="#00C853" font-size="11" font-weight="700">571</text>

    <text x="878" y="258" fill="#FFFFFF" font-size="10">HIGH</text>
    <text x="878" y="270" fill="#FFFFFF" font-size="11" font-weight="700">56/D</text>

    <text x="940" y="258" fill="#FFFFFF" font-size="10">AVG</text>
    <text x="940" y="270" fill="#FFFFFF" font-size="11" font-weight="700">1.5/D</text>

    <text x="1000" y="258" fill="#FFFFFF" font-size="10">STREAK</text>
    <text x="1000" y="270" fill="#00C853" font-size="11" font-weight="700">6D</text>

    <text x="1066" y="258" fill="#FFFFFF" font-size="10">DAYS</text>
    <text x="1066" y="270" fill="#FFFFFF" font-size="11" font-weight="700">56 / 365</text>
  </g>

  <!-- =================== BOTTOM TICKER (scrolling marquee) =================== -->
  <line x1="26" y1="296" x2="1174" y2="296" stroke="#444444" stroke-width="0.5" opacity="1"/>
  <defs>
    <clipPath id="ticker-clip">
      <rect x="26" y="300" width="1030" height="22"/>
    </clipPath>
  </defs>
  <g clip-path="url(#ticker-clip)" font-size="12" font-weight="700">
    <g>
      <animateTransform attributeName="transform" type="translate"
        from="0 0" to="-944 0" dur="32s" repeatCount="indefinite"/>
      <!-- Copy 1 -->
      <text x="26" y="318" fill="#FF7700">TERM</text>
      <text x="70" y="318" fill="#00C853">+12.4% ▲</text>
      <text x="148" y="318" fill="#888888">◆</text>
      <text x="166" y="318" fill="#FF7700">MAGIK</text>
      <text x="218" y="318" fill="#00C853">+24.1% ▲</text>
      <text x="296" y="318" fill="#888888">◆</text>
      <text x="314" y="318" fill="#FF7700">HFT</text>
      <text x="350" y="318" fill="#00C853">+ 8.7% ▲</text>
      <text x="428" y="318" fill="#888888">◆</text>
      <text x="446" y="318" fill="#FF7700">RISK</text>
      <text x="488" y="318" fill="#FF1744">- 1.2% ▼</text>
      <text x="566" y="318" fill="#888888">◆</text>
      <text x="584" y="318" fill="#FF7700">LOBBY</text>
      <text x="636" y="318" fill="#00C853">+ 4.0% ▲</text>
      <text x="714" y="318" fill="#888888">◆</text>
      <text x="732" y="318" fill="#FF7700">SITE</text>
      <text x="774" y="318" fill="#00C853">+ 2.1% ▲</text>
      <text x="852" y="318" fill="#888888">◆</text>
      <text x="870" y="318" fill="#FF7700">EST 2022.08</text>
      <!-- Copy 2 (offset +944) -->
      <text x="970" y="318" fill="#FF7700">TERM</text>
      <text x="1014" y="318" fill="#00C853">+12.4% ▲</text>
      <text x="1092" y="318" fill="#888888">◆</text>
      <text x="1110" y="318" fill="#FF7700">MAGIK</text>
      <text x="1162" y="318" fill="#00C853">+24.1% ▲</text>
      <text x="1240" y="318" fill="#888888">◆</text>
      <text x="1258" y="318" fill="#FF7700">HFT</text>
      <text x="1294" y="318" fill="#00C853">+ 8.7% ▲</text>
      <text x="1372" y="318" fill="#888888">◆</text>
      <text x="1390" y="318" fill="#FF7700">RISK</text>
      <text x="1432" y="318" fill="#FF1744">- 1.2% ▼</text>
      <text x="1510" y="318" fill="#888888">◆</text>
      <text x="1528" y="318" fill="#FF7700">LOBBY</text>
      <text x="1580" y="318" fill="#00C853">+ 4.0% ▲</text>
      <text x="1658" y="318" fill="#888888">◆</text>
      <text x="1676" y="318" fill="#FF7700">SITE</text>
      <text x="1718" y="318" fill="#00C853">+ 2.1% ▲</text>
      <text x="1796" y="318" fill="#888888">◆</text>
      <text x="1814" y="318" fill="#FF7700">EST 2022.08</text>
    </g>
  </g>
  <rect x="1056" y="298" width="118" height="24" fill="#000000"/>
  <text x="1174" y="318" fill="#FFFFFF" font-size="12" font-weight="700" text-anchor="end">&lt;HELP&gt; for HELP</text>
</svg>
