<svg xmlns="http://www.w3.org/2000/svg" viewBox="0 0 1200 360" preserveAspectRatio="xMidYMid meet" font-family="ui-monospace, Consolas, 'Courier New', monospace">
  <rect width="1200" height="360" fill="#000000"/>

  <!-- Header bar -->
  <rect x="0" y="0" width="3" height="26" fill="#FF7700"/>
  <line x1="0" y1="26" x2="1200" y2="26" stroke="#444444" stroke-width="0.5"/>
  <text x="14" y="18" fill="#FF7700" font-size="13" font-weight="700">GIP · DAVIDYANG02 CA · CONTRIBUTION INTRADAY · 1Y</text>
  <text x="1186" y="18" fill="#FF7700" font-size="13" font-weight="700" text-anchor="end">2026-05-09  14:32:07 EDT  ▲</text>

  <!-- Y axis labels -->
  <g font-size="11" fill="#888888">
    <text x="22" y="60" text-anchor="end">48 ┤</text>
    <text x="22" y="100" text-anchor="end">36 ┤</text>
    <text x="22" y="140" text-anchor="end">24 ┤</text>
    <text x="22" y="180" text-anchor="end">12 ┤</text>
    <text x="22" y="220" text-anchor="end"> 0 ┴</text>
  </g>

  <!-- Grid lines -->
  <g stroke="#1F1F1F" stroke-width="1">
    <line x1="40" y1="56" x2="1180" y2="56"/>
    <line x1="40" y1="96" x2="1180" y2="96"/>
    <line x1="40" y1="136" x2="1180" y2="136"/>
    <line x1="40" y1="176" x2="1180" y2="176"/>
    <line x1="40" y1="216" x2="1180" y2="216"/>
  </g>

  <!-- Area fill under series -->
  <polyline
    points="40,210 80,200 120,205 160,180 200,185 240,160 280,170 320,140 360,150 400,120 440,130 480,100 520,110 560,80 600,90 640,70 680,85 720,60 760,75 800,55 840,68 880,50 920,62 960,48 1000,58 1040,52 1080,64 1120,55 1160,70 1180,80 1180,216 40,216"
    fill="#5CB3E5" opacity="0.10" stroke="none"/>

  <!-- Main series (draws in on load) -->
  <polyline
    points="40,210 80,200 120,205 160,180 200,185 240,160 280,170 320,140 360,150 400,120 440,130 480,100 520,110 560,80 600,90 640,70 680,85 720,60 760,75 800,55 840,68 880,50 920,62 960,48 1000,58 1040,52 1080,64 1120,55 1160,70 1180,80"
    fill="none" stroke="#5CB3E5" stroke-width="2"
    stroke-dasharray="1300" stroke-dashoffset="1300">
    <animate attributeName="stroke-dashoffset" from="1300" to="0" dur="2.6s" fill="freeze"/>
  </polyline>

  <!-- Last point marker (pulses) -->
  <circle cx="1180" cy="80" r="4" fill="#00C853">
    <animate attributeName="r" values="3;6;3" dur="1.8s" repeatCount="indefinite"/>
    <animate attributeName="opacity" values="1;0.4;1" dur="1.8s" repeatCount="indefinite"/>
  </circle>
  <text x="1190" y="84" fill="#00C853" font-size="11" font-weight="700">767</text>

  <!-- X-axis labels -->
  <g font-size="11" fill="#888888" text-anchor="middle">
    <text x="100" y="240">JUN</text>
    <text x="200" y="240">JUL</text>
    <text x="300" y="240">AUG</text>
    <text x="400" y="240">SEP</text>
    <text x="500" y="240">OCT</text>
    <text x="600" y="240">NOV</text>
    <text x="700" y="240">DEC</text>
    <text x="800" y="240">JAN</text>
    <text x="900" y="240">FEB</text>
    <text x="1000" y="240">MAR</text>
    <text x="1100" y="240">APR</text>
  </g>

  <!-- Divider -->
  <line x1="20" y1="260" x2="1180" y2="260" stroke="#444444" stroke-width="0.5" opacity="1"/>

  <!-- Stat row 1 -->
  <g font-size="12">
    <text x="30" y="284" fill="#888888">LAST  1Y</text>
    <text x="30" y="302" fill="#00C853" font-weight="700">767</text>

    <text x="140" y="284" fill="#888888">HIGH</text>
    <text x="140" y="302" fill="#FFFFFF" font-weight="700">74 / D</text>

    <text x="240" y="284" fill="#888888">LOW</text>
    <text x="240" y="302" fill="#FFFFFF" font-weight="700">0  / D</text>

    <text x="340" y="284" fill="#888888">AVG</text>
    <text x="340" y="302" fill="#FFFFFF" font-weight="700">2.1 / D</text>

    <text x="450" y="284" fill="#888888">STREAK</text>
    <text x="450" y="302" fill="#00C853" font-weight="700">0 D</text>

    <text x="560" y="284" fill="#888888">LONGEST</text>
    <text x="560" y="302" fill="#FFFFFF" font-weight="700">8 D</text>

    <text x="680" y="284" fill="#888888">PRs</text>
    <text x="680" y="302" fill="#FFFFFF" font-weight="700">56</text>

    <text x="760" y="284" fill="#888888">REPOS</text>
    <text x="760" y="302" fill="#FFFFFF" font-weight="700">23</text>

    <text x="850" y="284" fill="#888888">DAYS ACTIVE</text>
    <text x="850" y="302" fill="#FFFFFF" font-weight="700">57 / 365</text>

    <text x="990" y="284" fill="#888888">EST</text>
    <text x="990" y="302" fill="#FFFFFF" font-weight="700">2022.08</text>

    <text x="1100" y="284" fill="#888888">FOLLOW</text>
    <text x="1100" y="302" fill="#FFFFFF" font-weight="700">1</text>
  </g>

  <!-- Volume bar -->
  <line x1="20" y1="320" x2="1180" y2="320" stroke="#444444" stroke-width="0.5" opacity="1"/>
  <text x="30" y="342" fill="#888888" font-size="11">VOL</text>
  <g>
    <rect x="70" y="332" width="141" height="14" fill="#1A1A1A" stroke="#444444" stroke-width="0.5"/>
    <rect x="70" y="332" width="141" height="14" fill="#5CB3E5">
      <animate attributeName="width" from="0" to="138" dur="1.2s" fill="freeze"/>
    </rect>
  </g>
  <text x="990" y="342" fill="#5CB3E5" font-size="11" font-weight="700">16%</text>
  <text x="1180" y="342" fill="#FFFFFF" font-size="11" text-anchor="end">&lt;HELP&gt; for HELP</text>
</svg>
