<svg xmlns="http://www.w3.org/2000/svg" viewBox="0 0 1200 1115" preserveAspectRatio="xMidYMid meet" font-family="ui-monospace, Consolas, 'Courier New', monospace">
  <rect width="1200" height="1115" fill="#000000"/>
  <g transform="translate(0,0)">

  <rect width="1200" height="340" fill="#000000"/>

  <!-- =================== F-KEY STRIP =================== -->
  <g font-size="11" font-weight="700" text-anchor="middle">
    <!-- F1 HELP -->
    <rect x="26" y="10" width="92" height="22" fill="#0A0A0A" stroke="#333333" stroke-width="1"/>
    <rect x="26" y="10" width="92" height="3" fill="#4C9F70"/>
    <text x="72" y="26" fill="#FFFFFF">F1·HELP</text>
    <!-- F2 EQUITY -->
    <rect x="122" y="10" width="92" height="22" fill="#0A0A0A" stroke="#333333" stroke-width="1"/>
    <rect x="122" y="10" width="92" height="3" fill="#FF7700"/>
    <text x="168" y="26" fill="#FFFFFF">F2·EQUITY</text>
    <!-- F3 GOVT -->
    <rect x="218" y="10" width="92" height="22" fill="#0A0A0A" stroke="#333333" stroke-width="1"/>
    <rect x="218" y="10" width="92" height="3" fill="#DA291C"/>
    <text x="264" y="26" fill="#FFFFFF">F3·GOVT</text>
    <!-- F4 CORP -->
    <rect x="314" y="10" width="92" height="22" fill="#0A0A0A" stroke="#333333" stroke-width="1"/>
    <rect x="314" y="10" width="92" height="3" fill="#F2C200"/>
    <text x="360" y="26" fill="#FFFFFF">F4·CORP</text>
    <!-- F5 MTGE -->
    <rect x="410" y="10" width="92" height="22" fill="#0A0A0A" stroke="#333333" stroke-width="1"/>
    <rect x="410" y="10" width="92" height="3" fill="#4C9F70"/>
    <text x="456" y="26" fill="#FFFFFF">F5·MTGE</text>
    <!-- F6 M-MKT -->
    <rect x="506" y="10" width="92" height="22" fill="#0A0A0A" stroke="#333333" stroke-width="1"/>
    <rect x="506" y="10" width="92" height="3" fill="#A07845"/>
    <text x="552" y="26" fill="#FFFFFF">F6·M-MKT</text>
    <!-- F7 MUNI -->
    <rect x="602" y="10" width="92" height="22" fill="#0A0A0A" stroke="#333333" stroke-width="1"/>
    <rect x="602" y="10" width="92" height="3" fill="#3D7BCC"/>
    <text x="648" y="26" fill="#FFFFFF">F7·MUNI</text>
    <!-- F8 PFD -->
    <rect x="698" y="10" width="92" height="22" fill="#0A0A0A" stroke="#333333" stroke-width="1"/>
    <rect x="698" y="10" width="92" height="3" fill="#A24CC9"/>
    <text x="744" y="26" fill="#FFFFFF">F8·PFD</text>
    <!-- F9 CMDTY -->
    <rect x="794" y="10" width="92" height="22" fill="#0A0A0A" stroke="#333333" stroke-width="1"/>
    <rect x="794" y="10" width="92" height="3" fill="#C45A1F"/>
    <text x="840" y="26" fill="#FFFFFF">F9·CMDTY</text>
    <!-- F10 INDEX -->
    <rect x="890" y="10" width="92" height="22" fill="#0A0A0A" stroke="#333333" stroke-width="1"/>
    <rect x="890" y="10" width="92" height="3" fill="#FFFFFF"/>
    <text x="936" y="26" fill="#FFFFFF">F10·INDEX</text>
    <!-- F11 CRNCY -->
    <rect x="986" y="10" width="92" height="22" fill="#0A0A0A" stroke="#333333" stroke-width="1"/>
    <rect x="986" y="10" width="92" height="3" fill="#2E8B57"/>
    <text x="1032" y="26" fill="#FFFFFF">F11·CRNCY</text>
    <!-- F12 CLIENT -->
    <rect x="1082" y="10" width="92" height="22" fill="#0A0A0A" stroke="#333333" stroke-width="1"/>
    <rect x="1082" y="10" width="92" height="3" fill="#888888"/>
    <text x="1128" y="26" fill="#FFFFFF">F12·CLIENT</text>
  </g>

  <!-- =================== COMMAND BAR =================== -->
  <line x1="26" y1="50" x2="1174" y2="50" stroke="#444444" stroke-width="0.5" opacity="1"/>
  <text x="26" y="68" fill="#FF7700" font-size="13" font-weight="700">DAVIDYANG02 CA</text>
  <text x="186" y="68" fill="#FFFFFF" font-size="13">&lt;Equity&gt;  GP  &lt;Go&gt;</text>
  <rect x="324" y="58" width="9" height="13" fill="#00C853">
    <animate attributeName="opacity" values="1;1;0;0" dur="1.05s" repeatCount="indefinite"/>
  </rect>
  <text x="1174" y="68" fill="#FFFFFF" font-size="13" text-anchor="end">2026-05-23  08:32:19 UTC</text>
  <line x1="26" y1="80" x2="1174" y2="80" stroke="#444444" stroke-width="0.5" opacity="1"/>

  <!-- =================== HERO TITLE (LEFT) =================== -->
  <text x="26" y="170" fill="#FFFFFF" font-size="64" font-weight="700" letter-spacing="2">DAVIDYANG02</text>
  <text x="28" y="200" fill="#FFFFFF" font-size="14" letter-spacing="3">FINTECH  /  DATA ENGINEERING  /  GAME DEV</text>

  <!-- Status badges -->
  <g font-size="11" font-weight="700">
    <circle cx="34" cy="232" r="4" fill="#00C853"/>
    <text x="44" y="236" fill="#00C853">LIVE</text>
    <text x="86" y="236" fill="#888888">|</text>
    <text x="98" y="236" fill="#FFFFFF">TORONTO · ON · CA</text>
  </g>

  <!-- =================== RIGHT PANEL: GIP MINI =================== -->
  <g>
    <rect x="820" y="100" width="354" height="170" fill="none" stroke="#444444" stroke-width="1"/>
    <rect x="820" y="100" width="3" height="20" fill="#FF7700"/>
    <line x1="820" y1="120" x2="1174" y2="120" stroke="#444444" stroke-width="0.5"/>
    <text x="830" y="115" fill="#FF7700" font-size="11" font-weight="700">GIP · 1Y INTRADAY · CONTRIBUTIONS</text>
    <text x="1166" y="115" fill="#FF7700" font-size="11" font-weight="700" text-anchor="end">▲</text>

    <!-- Sparkline (draws in on load) -->
    <polyline
      points="830,240 850,232 870,238 890,220 910,224 930,210 950,218 970,200 990,206 1010,188 1030,196 1050,178 1070,170 1090,180 1110,158 1130,166 1150,148 1166,142"
      fill="none" stroke="#5CB3E5" stroke-width="1.6"
      stroke-dasharray="420" stroke-dashoffset="420">
      <animate attributeName="stroke-dashoffset" from="420" to="0" dur="2.2s" fill="freeze"/>
    </polyline>
    <polyline
      points="830,240 850,232 870,238 890,220 910,224 930,210 950,218 970,200 990,206 1010,188 1030,196 1050,178 1070,170 1090,180 1110,158 1130,166 1150,148 1166,142 1166,260 830,260"
      fill="#5CB3E5" opacity="0.10" stroke="none"/>

    <!-- Footer numbers -->
    <text x="828" y="258" fill="#FFFFFF" font-size="10">LAST</text>
    <text x="828" y="270" fill="#00C853" font-size="11" font-weight="700">891</text>

    <text x="878" y="258" fill="#FFFFFF" font-size="10">HIGH</text>
    <text x="878" y="270" fill="#FFFFFF" font-size="11" font-weight="700">74/D</text>

    <text x="940" y="258" fill="#FFFFFF" font-size="10">AVG</text>
    <text x="940" y="270" fill="#FFFFFF" font-size="11" font-weight="700">2.4/D</text>

    <text x="1000" y="258" fill="#FFFFFF" font-size="10">STREAK</text>
    <text x="1000" y="270" fill="#00C853" font-size="11" font-weight="700">0D</text>

    <text x="1066" y="258" fill="#FFFFFF" font-size="10">DAYS</text>
    <text x="1066" y="270" fill="#FFFFFF" font-size="11" font-weight="700">61 / 365</text>
  </g>

  <!-- =================== BOTTOM TICKER (scrolling marquee) =================== -->
  <line x1="26" y1="296" x2="1174" y2="296" stroke="#444444" stroke-width="0.5" opacity="1"/>
  <defs>
    <clipPath id="ticker-clip">
      <rect x="26" y="300" width="1030" height="22"/>
    </clipPath>
  </defs>
  <g clip-path="url(#ticker-clip)" font-size="12" font-weight="700">
    <g>
      <animateTransform attributeName="transform" type="translate"
        from="0 0" to="-944 0" dur="32s" repeatCount="indefinite"/>
      <!-- Copy 1 -->
      <text x="26" y="318" fill="#FF7700">TERM</text>
      <text x="70" y="318" fill="#00C853">+12.4% ▲</text>
      <text x="148" y="318" fill="#888888">◆</text>
      <text x="166" y="318" fill="#FF7700">MAGIK</text>
      <text x="218" y="318" fill="#00C853">+24.1% ▲</text>
      <text x="296" y="318" fill="#888888">◆</text>
      <text x="314" y="318" fill="#FF7700">HFT</text>
      <text x="350" y="318" fill="#00C853">+ 8.7% ▲</text>
      <text x="428" y="318" fill="#888888">◆</text>
      <text x="446" y="318" fill="#FF7700">RISK</text>
      <text x="488" y="318" fill="#FF1744">- 1.2% ▼</text>
      <text x="566" y="318" fill="#888888">◆</text>
      <text x="584" y="318" fill="#FF7700">LOBBY</text>
      <text x="636" y="318" fill="#00C853">+ 4.0% ▲</text>
      <text x="714" y="318" fill="#888888">◆</text>
      <text x="732" y="318" fill="#FF7700">SITE</text>
      <text x="774" y="318" fill="#00C853">+ 2.1% ▲</text>
      <text x="852" y="318" fill="#888888">◆</text>
      <text x="870" y="318" fill="#FF7700">EST 2022.08</text>
      <!-- Copy 2 (offset +944) -->
      <text x="970" y="318" fill="#FF7700">TERM</text>
      <text x="1014" y="318" fill="#00C853">+12.4% ▲</text>
      <text x="1092" y="318" fill="#888888">◆</text>
      <text x="1110" y="318" fill="#FF7700">MAGIK</text>
      <text x="1162" y="318" fill="#00C853">+24.1% ▲</text>
      <text x="1240" y="318" fill="#888888">◆</text>
      <text x="1258" y="318" fill="#FF7700">HFT</text>
      <text x="1294" y="318" fill="#00C853">+ 8.7% ▲</text>
      <text x="1372" y="318" fill="#888888">◆</text>
      <text x="1390" y="318" fill="#FF7700">RISK</text>
      <text x="1432" y="318" fill="#FF1744">- 1.2% ▼</text>
      <text x="1510" y="318" fill="#888888">◆</text>
      <text x="1528" y="318" fill="#FF7700">LOBBY</text>
      <text x="1580" y="318" fill="#00C853">+ 4.0% ▲</text>
      <text x="1658" y="318" fill="#888888">◆</text>
      <text x="1676" y="318" fill="#FF7700">SITE</text>
      <text x="1718" y="318" fill="#00C853">+ 2.1% ▲</text>
      <text x="1796" y="318" fill="#888888">◆</text>
      <text x="1814" y="318" fill="#FF7700">EST 2022.08</text>
    </g>
  </g>
  <rect x="1056" y="298" width="118" height="24" fill="#000000"/>
  <text x="1174" y="318" fill="#FFFFFF" font-size="12" font-weight="700" text-anchor="end">&lt;HELP&gt; for HELP</text>

  </g>
  <g transform="translate(0,340)">

  <rect width="1200" height="215" fill="#000000"/>

  <!-- Panel header -->
  <rect x="0" y="0" width="3" height="26" fill="#FF7700"/>
  <line x1="0" y1="26" x2="1200" y2="26" stroke="#444444" stroke-width="0.5"/>
  <text x="14" y="18" fill="#FF7700" font-size="13" font-weight="700">PORT · ACTIVE POSITIONS · 6</text>
  <text x="1186" y="18" fill="#FF7700" font-size="13" font-weight="700" text-anchor="end">▲</text>

  <!-- Column headers -->
  <g font-size="10" font-weight="700" fill="#5CB3E5">
    <text x="20" y="46">TICKER</text>
    <text x="120" y="46">REPO</text>
    <text x="540" y="46">LAST CHG</text>
    <text x="680" y="46">STACK</text>
    <text x="1080" y="46">STATUS</text>
  </g>
  <line x1="20" y1="52" x2="1180" y2="52" stroke="#444444" stroke-width="0.5"/>

  <!-- Row 1: TERM (private) -->
  <text x="20" y="72" fill="#FF7700" font-size="13" font-weight="700">TERM</text>
  <text x="120" y="72" fill="#666666" font-size="13" font-style="italic">[PRIVATE]</text>
  <text x="540" y="72" fill="#00C853" font-size="13" font-weight="700">+12.4% ▲</text>
  <text x="680" y="72" fill="#444444" font-size="12">---</text>
  <rect x="1080" y="58" width="68" height="18" fill="none" stroke="#666666" stroke-width="1"/>
  <text x="1114" y="71" fill="#888888" font-size="10" font-weight="700" text-anchor="middle">PRIVATE</text>
  <line x1="20" y1="78" x2="1180" y2="78" stroke="#1F1F1F" stroke-width="0.5"/>

  <!-- Row 2: MAGIK (private) -->
  <text x="20" y="98" fill="#FF7700" font-size="13" font-weight="700">MAGIK</text>
  <text x="120" y="98" fill="#666666" font-size="13" font-style="italic">[PRIVATE]</text>
  <text x="540" y="98" fill="#00C853" font-size="13" font-weight="700">+24.1% ▲</text>
  <text x="680" y="98" fill="#444444" font-size="12">---</text>
  <rect x="1080" y="84" width="68" height="18" fill="none" stroke="#666666" stroke-width="1"/>
  <text x="1114" y="97" fill="#888888" font-size="10" font-weight="700" text-anchor="middle">PRIVATE</text>
  <line x1="20" y1="104" x2="1180" y2="104" stroke="#1F1F1F" stroke-width="0.5"/>

  <!-- Row 3: HFT -->
  <text x="20" y="124" fill="#FF7700" font-size="13" font-weight="700">HFT</text>
  <text x="120" y="124" fill="#FFFFFF" font-size="13">hft-simulator</text>
  <text x="540" y="124" fill="#00C853" font-size="13" font-weight="700">+ 8.7% ▲</text>
  <text x="680" y="124" fill="#888888" font-size="12">C++ · CMake</text>
  <rect x="1080" y="110" width="68" height="18" fill="none" stroke="#888888" stroke-width="1"/>
  <text x="1114" y="123" fill="#888888" font-size="10" font-weight="700" text-anchor="middle">IDLE</text>
  <line x1="20" y1="130" x2="1180" y2="130" stroke="#1F1F1F" stroke-width="0.5"/>

  <!-- Row 4: RISK (private) -->
  <text x="20" y="150" fill="#FF7700" font-size="13" font-weight="700">RISK</text>
  <text x="120" y="150" fill="#666666" font-size="13" font-style="italic">[PRIVATE]</text>
  <text x="540" y="150" fill="#FF1744" font-size="13" font-weight="700">- 1.2% ▼</text>
  <text x="680" y="150" fill="#444444" font-size="12">---</text>
  <rect x="1080" y="136" width="68" height="18" fill="none" stroke="#666666" stroke-width="1"/>
  <text x="1114" y="149" fill="#888888" font-size="10" font-weight="700" text-anchor="middle">PRIVATE</text>
  <line x1="20" y1="156" x2="1180" y2="156" stroke="#1F1F1F" stroke-width="0.5"/>

  <!-- Row 5: LOBBY -->
  <text x="20" y="176" fill="#FF7700" font-size="13" font-weight="700">LOBBY</text>
  <text x="120" y="176" fill="#FFFFFF" font-size="13">LobbyingPredictionModel</text>
  <text x="540" y="176" fill="#00C853" font-size="13" font-weight="700">+ 4.0% ▲</text>
  <text x="680" y="176" fill="#888888" font-size="12">Jupyter · Python · sklearn</text>
  <rect x="1080" y="162" width="68" height="18" fill="none" stroke="#888888" stroke-width="1"/>
  <text x="1114" y="175" fill="#888888" font-size="10" font-weight="700" text-anchor="middle">IDLE</text>
  <line x1="20" y1="182" x2="1180" y2="182" stroke="#1F1F1F" stroke-width="0.5"/>

  <!-- Row 6: SITE (private) -->
  <text x="20" y="202" fill="#FF7700" font-size="13" font-weight="700">SITE</text>
  <text x="120" y="202" fill="#666666" font-size="13" font-style="italic">[PRIVATE]</text>
  <text x="540" y="202" fill="#00C853" font-size="13" font-weight="700">+ 2.1% ▲</text>
  <text x="680" y="202" fill="#444444" font-size="12">---</text>
  <rect x="1080" y="188" width="68" height="18" fill="none" stroke="#666666" stroke-width="1"/>
  <text x="1114" y="201" fill="#888888" font-size="10" font-weight="700" text-anchor="middle">PRIVATE</text>

  </g>
  <g transform="translate(0,555)">

  <rect width="1200" height="200" fill="#000000"/>

  <!-- Panel header -->
  <rect x="0" y="0" width="3" height="26" fill="#FF7700"/>
  <line x1="0" y1="26" x2="1200" y2="26" stroke="#444444" stroke-width="0.5"/>
  <text x="14" y="18" fill="#FF7700" font-size="13" font-weight="700">EQUITY · ACCT SUMMARY · DAVIDYANG02</text>
  <text x="1186" y="18" fill="#FF7700" font-size="13" font-weight="700" text-anchor="end">1Y</text>

  <!-- Column dividers -->
  <line x1="400" y1="26" x2="400" y2="200" stroke="#222222" stroke-width="1"/>
  <line x1="800" y1="26" x2="800" y2="200" stroke="#222222" stroke-width="1"/>

  <!-- Sub-headers -->
  <text x="14" y="46" fill="#5CB3E5" font-size="10" font-weight="700">STATS</text>
  <text x="414" y="46" fill="#5CB3E5" font-size="10" font-weight="700">TOP LANGS · 6 OF 22</text>
  <text x="814" y="46" fill="#5CB3E5" font-size="10" font-weight="700">STREAK</text>

  <!-- STATS -->
  <text x="20" y="70" fill="#888888" font-size="9" font-weight="700">CONTRIB</text><text x="20" y="100" fill="#FFFFFF" font-size="22" font-weight="700">891</text>
  <text x="150" y="70" fill="#888888" font-size="9" font-weight="700">STARS</text><text x="150" y="100" fill="#FFFFFF" font-size="22" font-weight="700">10</text>
  <text x="280" y="70" fill="#888888" font-size="9" font-weight="700">FOLLOW</text><text x="280" y="100" fill="#FFFFFF" font-size="22" font-weight="700">1</text>
  <text x="20" y="134" fill="#888888" font-size="9" font-weight="700">COMMITS</text><text x="20" y="164" fill="#FFFFFF" font-size="22" font-weight="700">777</text>
  <text x="150" y="134" fill="#888888" font-size="9" font-weight="700">PRs</text><text x="150" y="164" fill="#FFFFFF" font-size="22" font-weight="700">93</text>
  <text x="280" y="134" fill="#888888" font-size="9" font-weight="700">REPOS</text><text x="280" y="164" fill="#FFFFFF" font-size="22" font-weight="700">23</text>

  <!-- LANGS -->
  <text x="414" y="73" fill="#FFFFFF" font-size="11">Python</text><rect x="520" y="64" width="240" height="12" fill="#1A1A1A"/><rect x="520" y="64" width="199.0" height="12" fill="#3572A5"/><text x="780" y="73" fill="#FFFFFF" font-size="11" text-anchor="end">82.9%</text>
  <text x="414" y="95" fill="#FFFFFF" font-size="11">HTML</text><rect x="520" y="86" width="240" height="12" fill="#1A1A1A"/><rect x="520" y="86" width="18.7" height="12" fill="#e34c26"/><text x="780" y="95" fill="#FFFFFF" font-size="11" text-anchor="end">7.8%</text>
  <text x="414" y="117" fill="#FFFFFF" font-size="11">TypeScript</text><rect x="520" y="108" width="240" height="12" fill="#1A1A1A"/><rect x="520" y="108" width="7.7" height="12" fill="#3178c6"/><text x="780" y="117" fill="#FFFFFF" font-size="11" text-anchor="end">3.2%</text>
  <text x="414" y="139" fill="#FFFFFF" font-size="11">Jupyter Not…</text><rect x="520" y="130" width="240" height="12" fill="#1A1A1A"/><rect x="520" y="130" width="7.2" height="12" fill="#DA5B0B"/><text x="780" y="139" fill="#FFFFFF" font-size="11" text-anchor="end">3.0%</text>
  <text x="414" y="161" fill="#FFFFFF" font-size="11">C</text><rect x="520" y="152" width="240" height="12" fill="#1A1A1A"/><rect x="520" y="152" width="3.9" height="12" fill="#555555"/><text x="780" y="161" fill="#FFFFFF" font-size="11" text-anchor="end">1.6%</text>
  <text x="414" y="183" fill="#FFFFFF" font-size="11">Cython</text><rect x="520" y="174" width="240" height="12" fill="#1A1A1A"/><rect x="520" y="174" width="3.5" height="12" fill="#fedf5b"/><text x="780" y="183" fill="#FFFFFF" font-size="11" text-anchor="end">1.5%</text>

  <!-- STREAK: total | ring | longest -->
  <text x="870" y="110" fill="#FFFFFF" font-size="28" font-weight="700" text-anchor="middle">891</text>
  <text x="870" y="138" fill="#888888" font-size="10" font-weight="700" text-anchor="middle">TOTAL CONTRIB</text>
  <text x="870" y="158" fill="#666666" font-size="9" text-anchor="middle">Aug 2022 - Present</text>

  <circle cx="1000" cy="110" r="38" stroke="#AAAAAA" stroke-width="2" fill="none"/>
  <polygon points="998,68 1002,68 1000,60" fill="#00C853"/>
  <text x="1000" y="120" fill="#FFFFFF" font-size="28" font-weight="700" text-anchor="middle">0</text>
  <text x="1000" y="148" fill="#FF7700" font-size="10" font-weight="700" text-anchor="middle">CURRENT STREAK</text>
  <text x="1000" y="168" fill="#666666" font-size="9" text-anchor="middle">-- - --</text>

  <text x="1130" y="110" fill="#FFFFFF" font-size="28" font-weight="700" text-anchor="middle">8</text>
  <text x="1130" y="138" fill="#888888" font-size="10" font-weight="700" text-anchor="middle">LONGEST STREAK</text>
  <text x="1130" y="158" fill="#666666" font-size="9" text-anchor="middle">Jan 6 - Jan 13</text>

  <line x1="0" y1="186" x2="1200" y2="186" stroke="#222222" stroke-width="0.5"/>
  <text x="14" y="198" fill="#666666" font-size="9">DAVIDYANG02 CA &lt;Equity&gt; GP &lt;Go&gt;</text>
  <text x="1186" y="198" fill="#666666" font-size="9" text-anchor="end">2026-05-23</text>

  </g>
  <g transform="translate(0,755)">

  <rect width="1200" height="360" fill="#000000"/>

  <!-- Header bar -->
  <rect x="0" y="0" width="3" height="26" fill="#FF7700"/>
  <line x1="0" y1="26" x2="1200" y2="26" stroke="#444444" stroke-width="0.5"/>
  <text x="14" y="18" fill="#FF7700" font-size="13" font-weight="700">GIP · DAVIDYANG02 CA · CONTRIBUTION INTRADAY · 1Y</text>
  <text x="1186" y="18" fill="#FF7700" font-size="13" font-weight="700" text-anchor="end">2026-05-09  14:32:07 EDT  ▲</text>

  <!-- Y axis labels -->
  <g font-size="11" fill="#888888">
    <text x="22" y="60" text-anchor="end">48 ┤</text>
    <text x="22" y="100" text-anchor="end">36 ┤</text>
    <text x="22" y="140" text-anchor="end">24 ┤</text>
    <text x="22" y="180" text-anchor="end">12 ┤</text>
    <text x="22" y="220" text-anchor="end"> 0 ┴</text>
  </g>

  <!-- Grid lines -->
  <g stroke="#1F1F1F" stroke-width="1">
    <line x1="40" y1="56" x2="1180" y2="56"/>
    <line x1="40" y1="96" x2="1180" y2="96"/>
    <line x1="40" y1="136" x2="1180" y2="136"/>
    <line x1="40" y1="176" x2="1180" y2="176"/>
    <line x1="40" y1="216" x2="1180" y2="216"/>
  </g>

  <!-- Area fill under series -->
  <polyline
    points="40,210 80,200 120,205 160,180 200,185 240,160 280,170 320,140 360,150 400,120 440,130 480,100 520,110 560,80 600,90 640,70 680,85 720,60 760,75 800,55 840,68 880,50 920,62 960,48 1000,58 1040,52 1080,64 1120,55 1160,70 1180,80 1180,216 40,216"
    fill="#5CB3E5" opacity="0.10" stroke="none"/>

  <!-- Main series (draws in on load) -->
  <polyline
    points="40,210 80,200 120,205 160,180 200,185 240,160 280,170 320,140 360,150 400,120 440,130 480,100 520,110 560,80 600,90 640,70 680,85 720,60 760,75 800,55 840,68 880,50 920,62 960,48 1000,58 1040,52 1080,64 1120,55 1160,70 1180,80"
    fill="none" stroke="#5CB3E5" stroke-width="2"
    stroke-dasharray="1300" stroke-dashoffset="1300">
    <animate attributeName="stroke-dashoffset" from="1300" to="0" dur="2.6s" fill="freeze"/>
  </polyline>

  <!-- Last point marker (pulses) -->
  <circle cx="1180" cy="80" r="4" fill="#00C853">
    <animate attributeName="r" values="3;6;3" dur="1.8s" repeatCount="indefinite"/>
    <animate attributeName="opacity" values="1;0.4;1" dur="1.8s" repeatCount="indefinite"/>
  </circle>
  <text x="1190" y="84" fill="#00C853" font-size="11" font-weight="700">891</text>

  <!-- X-axis labels -->
  <g font-size="11" fill="#888888" text-anchor="middle">
    <text x="100" y="240">JUN</text>
    <text x="200" y="240">JUL</text>
    <text x="300" y="240">AUG</text>
    <text x="400" y="240">SEP</text>
    <text x="500" y="240">OCT</text>
    <text x="600" y="240">NOV</text>
    <text x="700" y="240">DEC</text>
    <text x="800" y="240">JAN</text>
    <text x="900" y="240">FEB</text>
    <text x="1000" y="240">MAR</text>
    <text x="1100" y="240">APR</text>
  </g>

  <!-- Divider -->
  <line x1="20" y1="260" x2="1180" y2="260" stroke="#444444" stroke-width="0.5" opacity="1"/>

  <!-- Stat row 1 -->
  <g font-size="12">
    <text x="30" y="284" fill="#888888">LAST  1Y</text>
    <text x="30" y="302" fill="#00C853" font-weight="700">891</text>

    <text x="140" y="284" fill="#888888">HIGH</text>
    <text x="140" y="302" fill="#FFFFFF" font-weight="700">74 / D</text>

    <text x="240" y="284" fill="#888888">LOW</text>
    <text x="240" y="302" fill="#FFFFFF" font-weight="700">0  / D</text>

    <text x="340" y="284" fill="#888888">AVG</text>
    <text x="340" y="302" fill="#FFFFFF" font-weight="700">2.4 / D</text>

    <text x="450" y="284" fill="#888888">STREAK</text>
    <text x="450" y="302" fill="#00C853" font-weight="700">0 D</text>

    <text x="560" y="284" fill="#888888">LONGEST</text>
    <text x="560" y="302" fill="#FFFFFF" font-weight="700">8 D</text>

    <text x="680" y="284" fill="#888888">PRs</text>
    <text x="680" y="302" fill="#FFFFFF" font-weight="700">93</text>

    <text x="760" y="284" fill="#888888">REPOS</text>
    <text x="760" y="302" fill="#FFFFFF" font-weight="700">23</text>

    <text x="850" y="284" fill="#888888">DAYS ACTIVE</text>
    <text x="850" y="302" fill="#FFFFFF" font-weight="700">61 / 365</text>

    <text x="990" y="284" fill="#888888">EST</text>
    <text x="990" y="302" fill="#FFFFFF" font-weight="700">2022.08</text>

    <text x="1100" y="284" fill="#888888">FOLLOW</text>
    <text x="1100" y="302" fill="#FFFFFF" font-weight="700">1</text>
  </g>

  <!-- Volume bar -->
  <line x1="20" y1="320" x2="1180" y2="320" stroke="#444444" stroke-width="0.5" opacity="1"/>
  <text x="30" y="342" fill="#888888" font-size="11">VOL</text>
  <g>
    <rect x="70" y="332" width="150" height="14" fill="#1A1A1A" stroke="#444444" stroke-width="0.5"/>
    <rect x="70" y="332" width="150" height="14" fill="#5CB3E5">
      <animate attributeName="width" from="0" to="138" dur="1.2s" fill="freeze"/>
    </rect>
  </g>
  <text x="990" y="342" fill="#5CB3E5" font-size="11" font-weight="700">17%</text>
  <text x="1180" y="342" fill="#FFFFFF" font-size="11" text-anchor="end">&lt;HELP&gt; for HELP</text>

  </g>
</svg>
