<svg xmlns="http://www.w3.org/2000/svg" viewBox="0 0 1200 200" preserveAspectRatio="xMidYMid meet" font-family="ui-monospace, Consolas, 'Courier New', monospace">
  <rect width="1200" height="200" fill="#000000"/>

  <!-- Panel header -->
  <rect x="0" y="0" width="3" height="26" fill="#FF7700"/>
  <line x1="0" y1="26" x2="1200" y2="26" stroke="#444444" stroke-width="0.5"/>
  <text x="14" y="18" fill="#FF7700" font-size="13" font-weight="700">EQUITY · ACCT SUMMARY · DAVIDYANG02</text>
  <text x="1186" y="18" fill="#FF7700" font-size="13" font-weight="700" text-anchor="end">1Y</text>

  <!-- Column dividers -->
  <line x1="400" y1="26" x2="400" y2="200" stroke="#222222" stroke-width="1"/>
  <line x1="800" y1="26" x2="800" y2="200" stroke="#222222" stroke-width="1"/>

  <!-- Sub-headers -->
  <text x="14" y="46" fill="#5CB3E5" font-size="10" font-weight="700">STATS</text>
  <text x="414" y="46" fill="#5CB3E5" font-size="10" font-weight="700">TOP LANGS · 6 OF 23</text>
  <text x="814" y="46" fill="#5CB3E5" font-size="10" font-weight="700">STREAK</text>

  <!-- STATS -->
  <text x="20" y="70" fill="#888888" font-size="9" font-weight="700">CONTRIB</text><text x="20" y="100" fill="#FFFFFF" font-size="22" font-weight="700">1762</text>
  <text x="150" y="70" fill="#888888" font-size="9" font-weight="700">STARS</text><text x="150" y="100" fill="#FFFFFF" font-size="22" font-weight="700">10</text>
  <text x="280" y="70" fill="#888888" font-size="9" font-weight="700">FOLLOW</text><text x="280" y="100" fill="#FFFFFF" font-size="22" font-weight="700">1</text>
  <text x="20" y="134" fill="#888888" font-size="9" font-weight="700">COMMITS</text><text x="20" y="164" fill="#FFFFFF" font-size="22" font-weight="700">1423</text>
  <text x="150" y="134" fill="#888888" font-size="9" font-weight="700">PRs</text><text x="150" y="164" fill="#FFFFFF" font-size="22" font-weight="700">313</text>
  <text x="280" y="134" fill="#888888" font-size="9" font-weight="700">REPOS</text><text x="280" y="164" fill="#FFFFFF" font-size="22" font-weight="700">28</text>

  <!-- LANGS -->
  <text x="414" y="73" fill="#FFFFFF" font-size="11">Python</text><rect x="520" y="64" width="240" height="12" fill="#1A1A1A"/><rect x="520" y="64" width="161.0" height="12" fill="#3572A5"/><text x="780" y="73" fill="#FFFFFF" font-size="11" text-anchor="end">67.1%</text>
  <text x="414" y="95" fill="#FFFFFF" font-size="11">HTML</text><rect x="520" y="86" width="240" height="12" fill="#1A1A1A"/><rect x="520" y="86" width="52.0" height="12" fill="#e34c26"/><text x="780" y="95" fill="#FFFFFF" font-size="11" text-anchor="end">21.7%</text>
  <text x="414" y="117" fill="#FFFFFF" font-size="11">TypeScript</text><rect x="520" y="108" width="240" height="12" fill="#1A1A1A"/><rect x="520" y="108" width="15.3" height="12" fill="#3178c6"/><text x="780" y="117" fill="#FFFFFF" font-size="11" text-anchor="end">6.4%</text>
  <text x="414" y="139" fill="#FFFFFF" font-size="11">Jupyter Not…</text><rect x="520" y="130" width="240" height="12" fill="#1A1A1A"/><rect x="520" y="130" width="5.8" height="12" fill="#DA5B0B"/><text x="780" y="139" fill="#FFFFFF" font-size="11" text-anchor="end">2.4%</text>
  <text x="414" y="161" fill="#FFFFFF" font-size="11">C</text><rect x="520" y="152" width="240" height="12" fill="#1A1A1A"/><rect x="520" y="152" width="3.1" height="12" fill="#555555"/><text x="780" y="161" fill="#FFFFFF" font-size="11" text-anchor="end">1.3%</text>
  <text x="414" y="183" fill="#FFFFFF" font-size="11">Cython</text><rect x="520" y="174" width="240" height="12" fill="#1A1A1A"/><rect x="520" y="174" width="2.8" height="12" fill="#fedf5b"/><text x="780" y="183" fill="#FFFFFF" font-size="11" text-anchor="end">1.2%</text>

  <!-- STREAK: total | ring | longest -->
  <text x="870" y="110" fill="#FFFFFF" font-size="28" font-weight="700" text-anchor="middle">1762</text>
  <text x="870" y="138" fill="#888888" font-size="10" font-weight="700" text-anchor="middle">TOTAL CONTRIB</text>
  <text x="870" y="158" fill="#666666" font-size="9" text-anchor="middle">Aug 2022 - Present</text>

  <circle cx="1000" cy="110" r="38" stroke="#AAAAAA" stroke-width="2" fill="none"/>
  <polygon points="998,68 1002,68 1000,60" fill="#00C853"/>
  <text x="1000" y="120" fill="#FFFFFF" font-size="28" font-weight="700" text-anchor="middle">0</text>
  <text x="1000" y="148" fill="#FF7700" font-size="10" font-weight="700" text-anchor="middle">CURRENT STREAK</text>
  <text x="1000" y="168" fill="#666666" font-size="9" text-anchor="middle">-- - --</text>

  <text x="1130" y="110" fill="#FFFFFF" font-size="28" font-weight="700" text-anchor="middle">11</text>
  <text x="1130" y="138" fill="#888888" font-size="10" font-weight="700" text-anchor="middle">LONGEST STREAK</text>
  <text x="1130" y="158" fill="#666666" font-size="9" text-anchor="middle">May 16 - May 26</text>

  <line x1="0" y1="186" x2="1200" y2="186" stroke="#222222" stroke-width="0.5"/>
  <text x="14" y="198" fill="#666666" font-size="9">DAVIDYANG02 CA &lt;Equity&gt; GP &lt;Go&gt;</text>
  <text x="1186" y="198" fill="#666666" font-size="9" text-anchor="end">2026-06-17</text>
</svg>
