<svg xmlns="http://www.w3.org/2000/svg" viewBox="0 0 480 180" preserveAspectRatio="xMidYMid meet" font-family="ui-monospace, Consolas, 'Courier New', monospace">
  <rect width="480" height="180" fill="#000000"/>
  <rect x="0" y="0" width="480" height="22" fill="#FF7700"/>
  <text x="8" y="15" fill="#000000" font-size="11" font-weight="700">CRNCY · TOP LANGS</text>
  <text x="472" y="15" fill="#000000" font-size="11" font-weight="700" text-anchor="end">6 OF 8</text>
  <text x="14" y="53" fill="#FFFFFF" font-size="11">Jupyter Noteb…</text>
  <rect x="130" y="44" width="290" height="12" fill="#1A1A1A"/>
  <rect x="130" y="44" width="157.9" height="12" fill="#DA5B0B"/>
  <text x="466" y="53" fill="#FFFFFF" font-size="11" text-anchor="end">54.5%</text>
  <text x="14" y="75" fill="#FFFFFF" font-size="11">C++</text>
  <rect x="130" y="66" width="290" height="12" fill="#1A1A1A"/>
  <rect x="130" y="66" width="39.7" height="12" fill="#f34b7d"/>
  <text x="466" y="75" fill="#FFFFFF" font-size="11" text-anchor="end">13.7%</text>
  <text x="14" y="97" fill="#FFFFFF" font-size="11">ShaderLab</text>
  <rect x="130" y="88" width="290" height="12" fill="#1A1A1A"/>
  <rect x="130" y="88" width="38.5" height="12" fill="#222c37"/>
  <text x="466" y="97" fill="#FFFFFF" font-size="11" text-anchor="end">13.3%</text>
  <text x="14" y="119" fill="#FFFFFF" font-size="11">C#</text>
  <rect x="130" y="110" width="290" height="12" fill="#1A1A1A"/>
  <rect x="130" y="110" width="37.6" height="12" fill="#178600"/>
  <text x="466" y="119" fill="#FFFFFF" font-size="11" text-anchor="end">13.0%</text>
  <text x="14" y="141" fill="#FFFFFF" font-size="11">Python</text>
  <rect x="130" y="132" width="290" height="12" fill="#1A1A1A"/>
  <rect x="130" y="132" width="8.3" height="12" fill="#3572A5"/>
  <text x="466" y="141" fill="#FFFFFF" font-size="11" text-anchor="end">2.9%</text>
  <text x="14" y="163" fill="#FFFFFF" font-size="11">HLSL</text>
  <rect x="130" y="154" width="290" height="12" fill="#1A1A1A"/>
  <rect x="130" y="154" width="7.9" height="12" fill="#aace60"/>
  <text x="466" y="163" fill="#FFFFFF" font-size="11" text-anchor="end">2.7%</text>
  <line x1="0" y1="170" x2="480" y2="170" stroke="#444444" stroke-width="0.5"/>
</svg>
